<svg width="440" height="464" viewBox="0 0 440 464" fill="none" xmlns="http://www.w3.org/2000/svg">
<path d="M64.4344 208.038C-21.4781 266.401 -21.4781 361.021 64.4344 419.396C150.357 477.758 289.654 477.758 375.567 419.396C461.479 361.033 461.479 266.412 375.567 208.038C289.654 149.676 150.357 149.676 64.4344 208.038Z" fill="#F5F5F5"/>
<path d="M88.5395 382.927C117.72 382.927 141.376 369.267 141.376 352.417C141.376 335.567 117.72 321.907 88.5395 321.907C59.3588 321.907 35.7031 335.567 35.7031 352.417C35.7031 369.267 59.3588 382.927 88.5395 382.927Z" fill="#E0E0E0"/>
<path d="M358.482 323.476C387.663 323.476 411.318 309.816 411.318 292.966C411.318 276.115 387.663 262.456 358.482 262.456C329.301 262.456 305.646 276.115 305.646 292.966C305.646 309.816 329.301 323.476 358.482 323.476Z" fill="#E0E0E0"/>
<path d="M169.193 317.552C198.374 317.552 222.029 303.892 222.029 287.042C222.029 270.192 198.374 256.532 169.193 256.532C140.012 256.532 116.356 270.192 116.356 287.042C116.356 303.892 140.012 317.552 169.193 317.552Z" fill="#E0E0E0"/>
<path d="M271.166 399.68C300.347 399.68 324.003 386.02 324.003 369.17C324.003 352.32 300.347 338.66 271.166 338.66C241.986 338.66 218.33 352.32 218.33 369.17C218.33 386.02 241.986 399.68 271.166 399.68Z" fill="#E0E0E0"/>
<path d="M382.247 189.61C385.279 185.828 386.614 163.806 385.724 159.112C384.834 154.417 384.6 148.411 384.905 143.377C385.209 138.342 383.5 133.706 381.228 132.957C378.945 132.208 377.061 132.407 376.382 135.802C375.691 139.197 375.176 142.955 371.511 149.605C367.847 156.267 363.878 163.116 367.109 171.896C370.34 180.701 382.247 189.61 382.247 189.61Z" fill="#F28F8F"/>
<path d="M391.178 223.282C393.625 222.743 395.17 220.32 394.632 217.884L351.173 19.7803L342.311 21.7237L385.769 219.828C386.308 222.275 388.731 223.82 391.178 223.282Z" fill="#37474F"/>
<path d="M371.17 2.81601C380.29 4.45508 388.333 12.1236 393.133 25.4351C402.722 52.0465 395.709 91.1498 377.457 112.762C368.325 123.568 358.127 127.959 348.995 126.319C343.458 125.324 345.354 125.664 339.817 124.669C330.696 123.03 322.653 115.361 317.853 102.05C308.265 75.4265 315.278 36.3349 333.53 14.7226C342.662 3.91652 352.859 -0.473818 361.991 1.16525C367.529 2.16039 365.632 1.82087 371.17 2.81601Z" fill="#174AFF"/>
<path d="M377.457 112.762C368.325 123.568 358.127 127.959 348.995 126.32C339.875 124.681 331.832 117.012 327.032 103.7C317.443 77.0891 324.456 37.9857 342.708 16.3735C351.84 5.56741 362.038 1.17706 371.17 2.81612C380.29 4.45519 388.333 12.1237 393.133 25.4352C402.722 52.0466 395.709 91.1499 377.457 112.762Z" fill="#174AFF"/>
<path opacity="0.5" d="M377.457 112.762C368.325 123.568 358.127 127.959 348.995 126.32C339.875 124.681 331.832 117.012 327.032 103.7C317.443 77.0891 324.456 37.9857 342.708 16.3735C351.84 5.56741 362.038 1.17706 371.17 2.81612C380.29 4.45519 388.333 12.1237 393.133 25.4352C402.722 52.0466 395.709 91.1499 377.457 112.762Z" fill="white"/>
<path d="M364.894 93.2686C364.52 93.573 364.157 93.5964 363.817 93.3505C363.478 93.1047 363.255 92.6715 363.161 92.0393L361.827 83.2352L345.717 96.1135C345.342 96.4179 344.98 96.4413 344.64 96.1955C344.3 95.9496 344.078 95.5164 343.984 94.8842L342.591 85.7406C342.369 84.242 342.392 82.8254 342.697 81.5025L353.046 36.7326C353.257 35.8545 353.479 35.2106 353.702 34.8126C353.924 34.4028 354.264 34.0282 354.709 33.6769L362.436 27.507C362.81 27.2026 363.173 27.1792 363.513 27.4251C363.852 27.6709 364.075 28.1041 364.168 28.7363L369.203 61.8805L373.605 58.3682C373.979 58.0756 374.342 58.0404 374.682 58.2863C375.021 58.5322 375.244 58.9653 375.337 59.5975L376.731 68.7412C376.824 69.3734 376.777 70.029 376.567 70.7081C376.368 71.3871 376.075 71.8788 375.7 72.1715L371.298 75.6838L372.633 84.4879C372.727 85.1201 372.68 85.7757 372.469 86.4548C372.27 87.1338 371.977 87.6255 371.603 87.9182L364.894 93.2686ZM359.989 69.2212L357.577 53.334L352.519 75.1804L359.989 69.2212Z" fill="white"/>
<path d="M405.263 163.995C403.975 162.683 402.149 164.17 402.149 164.17C402.149 164.17 402.184 163.444 401.446 162.203C400.709 160.962 399.608 160.002 399.608 160.002C399.608 160.002 400.709 159.394 401.692 158.305C402.664 157.216 401.915 154.488 401.177 153.247C400.44 152.006 396.119 151.631 394.117 152.147C392.115 152.65 385.91 153.938 384.225 154.629C382.539 155.319 371.299 161.747 371.299 161.747C371.299 161.747 379.249 155.565 382.585 153.481C385.934 151.397 393.029 150.882 395.698 149.009C398.742 146.866 399.187 143.577 396.436 142.312C393.684 141.048 383.428 142.125 380.244 143.026C377.059 143.939 373.372 145.403 368.595 148.763C363.818 152.123 358.117 155.647 357.086 157.813C355.81 160.482 356.747 165.376 357.227 168.034C357.695 170.621 358.842 180.022 359.428 185.279C359.908 189.599 356.583 202.641 354.042 213.014C351.502 223.387 333.882 289.933 333.882 289.933L383.487 292.954C383.487 292.954 385.934 212.534 388.498 209.724C392.104 205.767 394.586 200.827 394.644 194.985C394.703 187.41 393.474 184.565 398.004 179.168C400.475 176.229 402.828 174.274 404.584 171.183C406.317 168.104 406.539 165.306 405.263 163.995Z" fill="#FFA8A7"/>
<path d="M340.802 282.288C331.037 287.931 331.037 297.075 340.802 302.706C350.566 308.349 366.406 308.349 376.17 302.706C385.934 297.063 385.934 287.919 376.17 282.288C366.394 276.645 350.566 276.645 340.802 282.288Z" fill="#FFA8A7"/>
<path d="M401.681 158.305C402.103 157.825 402.185 157.052 402.103 156.209C402.091 156.233 401.482 157.369 398.989 158.762C396.472 160.178 388.85 162.614 384.94 165.318C381.029 168.022 377.06 171.476 374.836 171.886C376.475 171.839 381.1 169.345 385.794 166.337C390.489 163.328 399.597 159.991 399.597 159.991C399.597 159.991 400.71 159.406 401.681 158.305Z" fill="#F28F8F"/>
<path d="M398.262 168.385C396.998 169.638 390.266 174.099 387.842 175.796C385.419 177.494 381.204 179.941 381.204 179.941C381.204 179.941 384.822 178.746 387.152 177.248C389.481 175.749 396.213 171.277 398.555 169.216C400.885 167.156 401.739 165.517 402.137 164.17C402.137 164.17 402.172 163.445 401.435 162.204C401.692 164.674 399.526 167.133 398.262 168.385Z" fill="#F28F8F"/>
<path d="M296.175 364.499C296.175 364.499 286.153 281.27 285.076 270.616C283.999 259.962 281.938 250.689 279.901 245.69C278.567 242.4 276.939 239.216 275.651 235.926C274.012 231.747 273.111 227.251 272.97 222.767C272.923 221.28 272.572 219.395 270.687 219.383C268.861 219.372 267.011 221.257 266.11 222.673C265.056 224.336 264.553 226.291 264.307 228.258C263.979 230.974 264.213 233.573 264.365 236.254C264.459 237.846 264.658 240.387 263.288 241.534C262.574 242.12 261.509 241.721 260.724 241.241C257.715 239.403 255.503 236.067 253.629 233.081C251.803 230.178 250.047 226.958 247.436 224.183C245.668 222.299 240.622 225.483 238.503 227.216C236.454 228.902 235.108 231.641 233.762 233.866C231.303 237.916 228.598 241.874 227.077 246.358C221.972 261.46 232.439 267.279 241.816 276.2C246.523 280.673 250.492 282.792 249.754 296.209C249.145 307.424 246.136 364.394 246.136 364.394L296.175 364.499Z" fill="#B16668"/>
<path d="M271.167 379.45C284.978 379.45 296.174 372.987 296.174 365.015C296.174 357.042 284.978 350.579 271.167 350.579C257.355 350.579 246.159 357.042 246.159 365.015C246.159 372.987 257.355 379.45 271.167 379.45Z" fill="#B16668"/>
<path d="M227.101 246.381C226.867 247.084 226.656 247.798 226.48 248.5C226.469 248.535 226.469 248.571 226.457 248.594C226.117 249.975 225.895 251.369 225.801 252.75C225.239 262.947 233.294 268.263 240.974 275.381C240.892 274.878 240.81 274.374 240.752 273.859C240.494 271.541 240.014 269.188 241.103 267.057C241.63 266.038 242.344 265.371 243.527 265.219C243.901 265.172 244.299 265.184 244.627 265.359C245.435 265.792 245.529 267.396 245.681 268.193C245.868 269.188 245.891 270.206 246.172 271.19C247.015 274.175 252.717 275.662 254.672 272.887C255.047 272.36 255.187 271.693 255.304 271.049C255.574 269.539 255.749 268.005 255.831 266.46C255.878 265.488 255.901 264.458 256.417 263.627C258.22 260.641 262.071 265.137 263.804 266.073C264.975 266.706 266.204 267.221 267.469 267.619C268.136 267.818 268.803 267.993 269.482 268.122C269.927 268.204 270.829 268.157 271.192 268.38C266.427 265.476 263.207 262.327 261.123 257.152C260.795 256.321 259.742 254.12 259.425 253.277C258.875 251.837 260.116 251.392 260.678 250.596C262.224 248.407 260.339 246.37 259.25 244.754C257.868 242.705 256.499 240.668 255.082 238.631C255.702 238.455 256.417 238.256 257.072 237.917C255.796 236.395 254.672 234.685 253.665 233.081C253.443 232.718 253.209 232.356 252.986 231.981C252.53 231.243 252.073 230.482 251.593 229.721C251.359 229.347 251.113 228.96 250.867 228.586C250.2 227.579 249.497 226.584 248.713 225.612C248.526 225.39 248.338 225.155 248.139 224.933C247.917 224.675 247.706 224.43 247.472 224.184C247.378 224.078 247.261 223.996 247.144 223.926C247.132 223.914 247.121 223.903 247.097 223.891C245.084 222.697 240.518 225.6 238.539 227.228C237.766 227.86 237.099 228.644 236.49 229.487C236.162 229.944 235.858 230.424 235.554 230.904C234.933 231.911 234.36 232.941 233.786 233.878C233.06 235.083 232.311 236.278 231.573 237.483C230.765 238.806 229.969 240.141 229.243 241.511C228.4 243.08 227.663 244.695 227.101 246.381C227.101 246.37 227.101 246.37 227.101 246.381Z" fill="#9A4A4D"/>
<path d="M252.378 274.046C254.884 274.046 256.909 272.021 256.909 269.516L256.944 143.846H247.871L247.836 269.516C247.836 272.021 249.873 274.046 252.378 274.046Z" fill="#37474F"/>
<path d="M287.806 96.595C295.837 101.231 300.801 111.171 300.801 125.314C300.801 153.599 280.934 188.008 256.441 202.151C244.195 209.222 233.096 209.889 225.077 205.253C220.206 202.443 221.88 203.403 216.998 200.594C208.967 195.957 204.003 186.018 204.003 171.875C204.003 143.578 223.871 109.181 248.363 95.0379C260.609 87.9665 271.708 87.2992 279.728 91.9354C284.598 94.7569 282.924 93.7852 287.806 96.595Z" fill="#174AFF"/>
<path d="M256.428 202.162C244.182 209.234 233.083 209.901 225.064 205.265C217.032 200.629 212.068 190.689 212.068 176.546C212.068 148.249 231.936 113.852 256.428 99.7093C268.675 92.6379 279.773 91.9706 287.793 96.6068C295.824 101.243 300.789 111.183 300.789 125.326C300.789 153.611 280.932 188.02 256.428 202.162Z" fill="#174AFF"/>
<path opacity="0.5" d="M256.428 202.162C244.182 209.234 233.083 209.901 225.064 205.265C217.032 200.629 212.068 190.689 212.068 176.546C212.068 148.249 231.936 113.852 256.428 99.7093C268.675 92.6379 279.773 91.9706 287.793 96.6068C295.824 101.243 300.789 111.183 300.789 125.326C300.789 153.611 280.932 188.02 256.428 202.162Z" fill="white"/>
<path d="M267.75 117.563C268.137 117.341 268.476 117.364 268.757 117.633C269.038 117.903 269.179 118.347 269.179 118.945V127.632C269.179 128.24 269.05 128.849 268.804 129.481C268.558 130.114 268.324 130.664 268.113 131.109L261.674 144.818C264.437 144.315 266.697 144.853 268.429 146.446C270.162 148.038 271.04 150.965 271.04 155.226C271.04 161.396 269.659 166.84 266.884 171.547C264.121 176.253 260.246 180.047 255.282 182.915C252.729 184.39 250.47 185.233 248.503 185.444C246.536 185.654 244.874 185.385 243.527 184.624C242.181 183.875 241.139 182.739 240.413 181.217C239.687 179.695 239.301 177.939 239.266 175.937C239.266 175.445 239.383 174.954 239.617 174.474C239.851 173.982 240.12 173.654 240.436 173.467L247.145 169.592C247.894 169.158 248.456 169.088 248.854 169.381C249.24 169.674 249.674 169.99 250.154 170.306C250.634 170.634 251.254 170.833 252.015 170.915C252.776 170.997 253.865 170.622 255.282 169.802C256.979 168.819 258.396 167.566 259.508 166.044C260.632 164.522 261.182 162.813 261.182 160.905C261.182 158.996 260.62 157.919 259.508 157.697C258.396 157.463 256.979 157.849 255.282 158.832L250.868 161.385C250.482 161.607 250.142 161.584 249.861 161.314C249.58 161.045 249.44 160.6 249.44 160.003V152.955C249.44 152.358 249.568 151.738 249.814 151.105C250.06 150.473 250.306 149.888 250.563 149.361L256.207 137.337L242.321 145.357C241.935 145.579 241.595 145.556 241.314 145.287C241.033 145.017 240.893 144.572 240.893 143.975V135.288C240.893 134.691 241.033 134.094 241.314 133.485C241.595 132.888 241.935 132.467 242.321 132.244L267.75 117.563Z" fill="#FAFAFA"/>
<path d="M234.207 223.727C234.207 218.225 234.804 217.92 237.544 217.077C240.283 216.234 245.622 215.438 250.27 218.986C253.396 221.374 256.662 223.622 257.704 225.659C258.746 227.696 254.847 230.155 250.024 228.094C242.414 224.863 241.173 226.666 241.173 226.666C241.173 226.666 248.186 229.651 250.703 231.255C253.232 232.859 256.826 237.191 259.273 239.614C261.72 242.038 259.706 245.995 254.145 243.864C254.145 243.864 257.236 246.932 258.629 248.313C261.767 251.427 261.626 254.179 257.259 254.378C256.217 254.425 254.871 254.366 253.185 253.277C253.185 253.277 256.966 255.982 256.147 257.305C253.782 261.063 250.773 260.337 241.548 257.07C232.755 253.956 229.079 256.614 227.381 260.606C227.381 260.606 225.005 255.736 224.431 252.797C223.892 249.987 223.389 247.716 226.398 245.339C226.398 245.339 222.183 242.436 223.775 239.673C225.368 236.922 228.739 234.885 228.739 234.885C228.739 234.885 227.159 231.922 229.512 228.972C231.865 226.01 234.277 225.542 234.277 225.542L234.207 223.727Z" fill="#B16668"/>
<path d="M254.144 243.864C252.786 242.541 251.592 241.171 249.906 240.059C248.115 239.005 246.23 238.701 244.439 238.279C240.786 237.542 237.098 236.933 233.328 236.816C236.84 238.209 240.446 239.111 244.087 239.895C245.902 240.281 247.764 240.551 249.309 241.195C250.831 241.956 252.447 243.079 254.144 243.864Z" fill="#9A4A4D"/>
<path d="M253.184 253.277C251.943 251.673 250.211 250.374 248.314 249.554C246.441 248.688 244.462 248.138 242.495 247.646C238.55 246.744 234.569 246.124 230.495 246.065C234.335 247.412 238.234 248.325 242.109 249.262C245.996 250.198 249.813 250.959 253.184 253.277Z" fill="#9A4A4D"/>
<path d="M142.041 175.585C139.969 175.093 138.693 173.887 136.972 172.798C135.403 171.791 133.823 171.276 132.628 169.719C131.516 168.256 130.849 166.523 130.158 164.825C128.777 161.454 127.231 158.14 125.534 154.909C124.632 153.188 120.886 148.985 122.548 147.264C124.761 144.969 128.718 145.332 131.341 147.147C133.963 148.962 135.602 151.842 137.241 154.581C138.88 157.321 140.742 160.119 143.587 161.571C145.788 162.695 148.48 162.952 150.283 164.638C152.555 166.757 152.52 170.703 150.529 173.091C148.539 175.479 145.062 176.311 142.041 175.585Z" fill="#F0997A"/>
<path d="M125.887 223.387C123.44 222.849 121.895 220.425 122.433 217.99L165.892 19.8857L174.755 21.8292L131.296 219.933C130.757 222.38 128.334 223.926 125.887 223.387Z" fill="#37474F"/>
<path d="M145.897 2.92198C136.777 4.56104 128.733 12.2295 123.933 25.5411C114.345 52.1524 121.358 91.2558 139.61 112.868C148.742 123.674 158.939 128.064 168.071 126.425C173.609 125.43 171.712 125.77 177.25 124.775C186.37 123.136 194.413 115.467 199.213 102.156C208.802 75.5325 201.789 36.4408 183.537 14.8286C174.405 4.02249 164.207 -0.367861 155.076 1.2712C149.526 2.26635 151.434 1.92683 145.897 2.92198Z" fill="#174AFF"/>
<path d="M139.609 112.868C148.741 123.674 158.938 128.065 168.07 126.426C177.19 124.786 185.234 117.118 190.034 103.806C199.622 77.1951 192.609 38.0917 174.357 16.4795C165.225 5.67336 155.028 1.28302 145.896 2.92208C136.776 4.56115 128.733 12.2296 123.933 25.5412C114.332 52.1525 121.357 91.2559 139.609 112.868Z" fill="#174AFF"/>
<path opacity="0.5" d="M139.609 112.868C148.741 123.674 158.938 128.065 168.07 126.426C177.19 124.786 185.234 117.118 190.034 103.806C199.622 77.1951 192.609 38.0917 174.357 16.4795C165.225 5.67336 155.028 1.28302 145.896 2.92208C136.776 4.56115 128.733 12.2296 123.933 25.5412C114.332 52.1525 121.357 91.2559 139.609 112.868Z" fill="white"/>
<path d="M169.497 58.357C169.216 60.0077 168.876 61.5414 168.478 62.9814C168.08 64.4098 167.577 65.721 166.991 66.9152C166.406 68.1094 165.703 69.2099 164.907 70.205C164.111 71.2119 163.186 72.1134 162.133 72.9329L155.611 78.2364L164.556 84.9566C164.814 85.1556 165.001 85.5537 165.118 86.1508C165.235 86.7479 165.235 87.3567 165.13 87.9889L163.596 97.0388C163.491 97.6711 163.303 98.1277 163.034 98.4438C162.765 98.7599 162.507 98.8184 162.238 98.6194L143.435 84.4766C143.178 84.2776 142.991 83.8795 142.874 83.2824C142.756 82.6853 142.756 82.0765 142.862 81.4443L144.103 74.1037C144.255 73.1905 144.489 72.3358 144.794 71.5514C145.098 70.7553 145.496 70.1933 145.988 69.8538L159.732 59.598C160.81 58.7433 161.571 57.7833 161.98 56.7179C162.402 55.6525 162.706 54.552 162.905 53.4163C162.975 53.0183 163.034 52.4446 163.093 51.6836C163.151 50.9343 163.139 50.1148 163.046 49.2484C162.952 48.3704 162.753 47.5391 162.449 46.7313C162.144 45.9235 161.664 45.2679 160.997 44.7761C160.33 44.2727 159.744 44.1439 159.241 44.3664C158.737 44.6005 158.316 44.9635 157.965 45.4786C157.625 45.9937 157.344 46.5674 157.11 47.1996C156.887 47.8318 156.712 48.3001 156.607 48.6045C156.349 49.307 156.08 49.705 155.787 49.7636C155.494 49.8338 155.178 49.7402 154.85 49.4943L150.472 46.2045C150.261 46.0406 150.109 45.7245 150.015 45.2327C149.921 44.741 149.921 44.2493 150.003 43.7342C150.425 41.3575 151.045 39.1448 151.853 37.0842C152.661 35.0237 153.633 33.3378 154.78 32.0149C155.927 30.7036 157.215 29.8958 158.644 29.6265C160.072 29.3455 161.617 29.8372 163.28 31.09C164.849 32.2724 166.137 33.8647 167.143 35.8784C168.15 37.8921 168.911 40.1282 169.403 42.5751C169.895 45.0337 170.152 47.6211 170.152 50.3607C170.164 53.0651 169.941 55.7344 169.497 58.357Z" fill="white"/>
<path d="M169.192 299.335C182.312 299.335 192.947 293.197 192.947 285.625C192.947 278.054 182.312 271.916 169.192 271.916C156.073 271.916 145.438 278.054 145.438 285.625C145.438 293.197 156.073 299.335 169.192 299.335Z" fill="#FFBDA7"/>
<path d="M192.935 284.887C192.935 284.887 176.064 198.427 172.177 182.071C168.922 168.385 168.126 165.095 162.507 157.439C157.964 151.245 152.883 145.649 150.682 142.254C148.493 138.859 141.328 133.11 136.328 127.619C131.282 122.491 129.538 129.738 131.271 133.953C133.519 139.444 136.375 142.687 138.963 146.34C141.41 149.793 142.58 153.411 144.418 157.087C141.492 156.49 134.081 155.788 131.107 156.08C128.719 156.315 126.014 156.514 124.504 158.797C123.474 160.354 123.567 162.321 123.731 164.018C123.731 164.018 122.08 164.639 121.226 165.716C120.348 166.816 119.914 168.526 120.687 170.82C121.308 172.658 122.841 174.286 122.841 174.286C121.319 174.789 120.008 176.194 119.68 177.341C118.556 181.24 119.973 186.754 120.394 187.562C120.652 188.042 123.087 191.613 123.778 192.667C124.785 194.189 125.405 195.57 126.529 196.167C127.852 196.87 130.486 194.247 130.592 192.257C130.814 190.114 130.241 187.176 129.889 185.876C131.833 186.508 133.121 186.988 135.275 187.129C135.275 189.67 133.975 195.687 135.474 201.623C137.616 210.088 144.418 213.424 145.542 217.498C149.219 230.833 145.46 284.887 145.46 284.887H192.935Z" fill="#FFBDA7"/>
<path d="M130.557 188.44C130.369 187.375 130.276 186.544 129.913 185.865C129.913 185.865 129.07 186.157 127.267 185.794C126.623 185.666 126.014 185.221 125.37 184.811C125.663 185.525 126.166 186.157 126.845 186.626C127.185 186.848 127.559 187.071 127.981 187.164C128.25 187.223 128.508 187.258 128.789 187.258C129.21 188.101 129.643 188.675 129.913 189.436C130.287 190.278 130.44 191.215 130.615 192.257C130.838 190.946 130.72 189.529 130.557 188.44Z" fill="#F0997A"/>
<path d="M143.435 154.967C143.752 155.67 144.068 156.384 144.431 157.086C145.625 157.367 150.261 158.643 152.005 159.92C150.858 157.555 146.807 155.939 143.435 154.967ZM143.834 163.982C141.539 163.209 139.127 163.01 136.797 162.788C134.444 162.612 132.079 162.519 129.726 162.612C127.373 162.718 125.558 163.057 123.743 164.017C126.506 163.479 127.853 163.327 130.182 163.455C132.852 163.607 134.503 163.643 136.832 163.853C139.174 164.041 141.328 164.486 143.564 164.989C144.688 165.235 145.789 165.563 146.866 165.984C147.943 166.382 149.02 166.85 149.921 167.611C148.399 165.738 146.07 164.755 143.834 163.982ZM132.828 171.779C128.731 171.756 124.844 172.47 122.854 174.273C126.776 173.02 129.597 172.915 134.713 173.02C136.868 173.056 142.253 173.02 147.498 175.104C145.941 173.489 143.646 172.962 141.586 172.365C139.467 171.803 135.006 171.791 132.828 171.779Z" fill="#F0997A"/>
<path d="M88.5392 366.302C102.053 366.302 113.008 359.975 113.008 352.171C113.008 344.367 102.053 338.04 88.5392 338.04C75.0254 338.04 64.0703 344.367 64.0703 352.171C64.0703 359.975 75.0254 366.302 88.5392 366.302Z" fill="#C8856A"/>
<path d="M90.4123 295.062C87.3215 287.698 80.3788 272.443 75.0519 265.488C67.3834 255.478 52.9948 255.736 52.9948 255.736L28.0342 292.99C35.808 295.565 34.6139 304.615 48.5927 309.521C52.3274 310.832 55.1256 310.937 56.109 314.145C57.3266 318.114 58.4739 324.026 59.6096 329.962C62.3023 344.105 64.1872 353.506 64.1872 353.506L112.341 348.87C112.329 348.858 102.74 324.424 90.4123 295.062Z" fill="#C8856A"/>
<path d="M52.8776 309.895C51.7537 309.884 50.6064 309.942 49.5059 309.813C52.784 310.855 55.2075 311.195 56.1089 314.134C57.2914 317.997 58.4153 323.722 59.5276 329.506C59.071 324.986 58.79 320.456 58.6846 315.913C58.6612 315.035 58.2631 314.063 59.0476 313.408C59.4573 313.056 59.9959 312.904 60.4876 312.705C61.9744 312.12 63.2974 311.125 64.2691 309.86C60.3588 311.172 56.7646 309.954 52.8776 309.895Z" fill="#AF6152"/>
<path d="M64.0695 256.087C57.2088 251.697 47.5501 244.286 39.7294 245.164C31.9087 246.054 30.4102 248.149 30.4102 248.149L41.146 273.426L64.0695 256.087Z" fill="#C8856A"/>
<path d="M41.5098 315.35C43.9918 315.678 46.2748 313.922 46.5909 311.44L69.8071 133.601L60.8157 132.431L37.5995 310.269C37.2834 312.751 39.0278 315.034 41.5098 315.35Z" fill="#37474F"/>
<path d="M94.3811 124.435C102.413 129.071 107.377 139.011 107.377 153.154C107.377 181.439 87.5087 215.848 63.0165 229.991C50.7703 237.062 39.6715 237.729 31.6518 233.093C26.7814 230.283 28.4556 231.243 23.5736 228.433C15.5421 223.797 10.5781 213.858 10.5781 199.715C10.5781 171.417 30.4459 137.021 54.9382 122.878C67.1844 115.806 78.2832 115.139 86.3029 119.775C91.1849 122.585 89.5107 121.613 94.3811 124.435Z" fill="#174AFF"/>
<path d="M63.0163 229.99C50.7702 237.062 39.6714 237.729 31.6517 233.093C23.6203 228.456 18.6562 218.517 18.6562 204.374C18.6562 176.077 38.524 141.68 63.0163 127.537C75.2625 120.466 86.3613 119.798 94.381 124.434C102.412 129.071 107.376 139.01 107.376 153.153C107.376 181.439 87.5086 215.847 63.0163 229.99Z" fill="#174AFF"/>
<path opacity="0.5" d="M63.0163 229.99C50.7702 237.062 39.6714 237.729 31.6517 233.093C23.6203 228.456 18.6562 218.517 18.6562 204.374C18.6562 176.077 38.524 141.68 63.0163 127.537C75.2625 120.466 86.3613 119.798 94.381 124.434C102.412 129.071 107.376 139.01 107.376 153.153C107.376 181.439 87.5086 215.847 63.0163 229.99Z" fill="white"/>
<path d="M46.9533 176.218C46.7426 175.808 46.7309 175.281 46.9065 174.614C47.0821 173.946 47.3865 173.338 47.808 172.799L63.0395 153.388C63.4142 152.92 63.8708 152.358 64.4093 151.714C64.9479 151.07 65.5216 150.625 66.1304 150.391L73.5647 147.464C74.0096 147.288 74.3608 147.37 74.6184 147.698C74.8759 148.037 74.9579 148.517 74.8642 149.15L66.5167 204.936C66.423 205.569 66.1772 206.177 65.7791 206.763C65.3811 207.348 64.9596 207.735 64.5147 207.91L56.5301 211.059C56.0852 211.235 55.734 211.153 55.4764 210.825C55.2189 210.498 55.1369 210.006 55.2306 209.374L60.8736 171.64L52.4559 182.27C52.0344 182.821 51.6012 183.137 51.168 183.219C50.7349 183.312 50.4188 183.149 50.208 182.739L46.9533 176.218Z" fill="white"/>
<path d="M29.0648 248.804C30.6102 247.446 32.7761 246.638 34.6611 246.088C34.6611 246.088 36.1245 258.041 36.1362 258.135C36.3235 259.657 36.3469 261.238 37.1899 262.549C36.2416 263.895 35.2933 265.23 34.3449 266.576C31.2541 270.955 28.1633 275.333 25.0842 279.7C23.9135 281.363 22.7427 283.025 21.572 284.688C21.4081 284.922 21.2559 285.191 21.0685 285.402L19.968 286.901C19.968 286.901 16.8655 276.855 18.8558 273.893C19.1134 273.519 19.4061 273.156 19.6051 272.746C20.3544 271.212 19.6051 269.327 20.0734 267.688C20.4949 266.213 21.8178 265.195 22.6139 263.883C23.2227 262.888 23.3983 261.846 23.4569 260.699C23.5037 259.704 23.9603 258.779 24.5574 257.983C25.2247 257.093 26.1262 256.367 26.6179 255.372C27.2267 254.131 26.8755 252.831 27.2033 251.567C27.496 250.49 28.2336 249.53 29.0648 248.804Z" fill="#C8856A"/>
<path d="M86.5959 293.996C83.2943 280.415 78.3772 269.211 73.097 262.877C66.5993 255.08 58.1113 253.581 50.197 252.762C44.6827 252.188 39.5079 250.057 34.0522 249.343C32.577 249.156 31.6638 249.823 31.4531 251.286C31.1604 253.253 31.6404 255.325 32.7761 256.976C34.1107 258.931 36.3118 260.149 38.4074 261.238C40.7138 262.432 43.1256 263.38 45.5491 264.305C55.9337 268.216 42.7626 277.593 52.7141 292.977C54.201 301.98 86.5959 293.996 86.5959 293.996Z" fill="#C8856A"/>
<path d="M73.0866 262.877C67.5489 256.707 59.2014 254.202 51.2051 253.289C47.084 253.019 43.0566 251.825 39.1228 250.854C37.2262 250.444 35.1774 249.858 33.269 249.858C32.4378 249.94 32.0163 250.619 31.9344 251.568C31.5831 254.495 33.0466 257.316 35.5169 258.955C38.877 261.262 42.6936 262.655 46.4986 264.2C47.4586 264.657 48.4069 265.254 49.1211 266.144C51.1465 268.86 49.8236 272.477 49.4723 275.428C48.2899 281.469 49.3787 287.779 52.7036 292.989C42.8927 279.256 54.4246 268.626 46.1123 265.067C40.8438 262.725 32.9763 260.957 31.1265 254.705C29.6514 247.072 34.112 248.664 39.3687 249.905C43.361 250.924 47.2362 252.106 51.3104 252.493C59.3418 253.57 67.8416 256.368 73.0866 262.877Z" fill="#AF6152"/>
<path d="M50.3838 282.463C51.7536 292.005 60.2651 294.347 66.3998 295.014C66.3998 295.014 56.7059 296.454 51.1331 292.146L47.3633 305.562L50.3838 282.463Z" fill="#AF6152"/>
<path d="M37.1897 262.537C37.6345 262.092 38.255 262.092 38.9341 262.373C39.5546 262.619 41.58 263.076 42.06 263.544C43.1371 264.586 44.0971 265.734 45.1977 266.74C46.825 268.227 48.4172 269.878 50.3022 271.014C52.3861 272.266 53.8027 272.899 55.2194 274.983C56.2145 276.446 56.5306 278.659 55.3247 280.099C54.552 281.024 53.2642 281.492 52.0817 281.281C52.6203 282.311 52.9012 283.482 52.7608 284.63C52.6086 285.777 51.9998 286.889 51.0163 287.498C49.9978 288.13 48.7451 288.189 47.5392 288.165C47.7031 289.254 47.3167 290.413 46.5557 291.198C45.1742 292.614 43.0083 292.403 41.2288 292.122C41.8961 293.492 41.2405 295.354 39.8707 296.009C39.0863 296.384 38.1848 296.396 37.3184 296.361C34.6725 296.255 31.8042 295.939 29.3573 294.932C27.0743 293.996 24.7913 293.598 22.8361 291.935C22.122 291.315 21.6654 290.87 21.1971 290.05C20.9629 289.64 20.3776 288.282 19.9795 286.913C21.1971 285.192 22.4147 283.471 23.6323 281.75C26.3718 277.886 29.0997 274.023 31.8393 270.147C32.9983 268.508 34.1574 266.869 35.3164 265.23C35.7028 264.68 36.1009 264.13 36.4872 263.568C36.6745 263.31 36.8267 263.041 37.0023 262.783C37.0609 262.678 37.1194 262.608 37.1897 262.537Z" fill="#C8856A"/>
<path d="M52.0821 281.258C49.3542 280.895 46.7902 279.818 44.2965 278.729C40.5267 276.938 36.8739 275.146 33.6309 272.43C32.6475 271.271 32.2377 269.983 31.7109 268.649C30.786 266.073 29.9898 263.439 29.5801 260.734C30.0016 262.034 30.4581 263.31 30.9616 264.574C31.945 266.963 32.7997 269.679 34.3802 271.716C39.6369 275.498 45.9473 279.068 52.0821 281.258Z" fill="#AF6152"/>
<path d="M47.5396 288.154C41.4516 287.147 35.7149 284.408 30.5519 281.071C29.4631 280.345 28.7957 279.151 28.1635 278.062C27.0045 275.885 25.9039 273.613 25.5293 271.155C25.9274 272.314 26.4776 273.403 27.063 274.468C28.222 276.423 29.3694 278.858 31.1607 280.216C32.1207 280.895 33.1978 281.481 34.2515 282.078C38.5481 284.373 42.88 286.667 47.5396 288.154Z" fill="#AF6152"/>
<path d="M41.6036 292.322C36.464 291.526 31.4765 289.512 27.1096 286.667C25.0022 284.419 22.9534 281.68 22.2158 278.659C22.567 279.631 23.1524 280.486 23.7495 281.317C24.932 282.862 26.2315 284.653 27.6481 285.953C31.98 288.634 36.7684 290.706 41.6036 292.322Z" fill="#AF6152"/>
<path d="M37.3882 267.021C37.119 267.033 36.8731 267.209 36.6507 267.361C36.4282 267.513 36.2175 267.677 36.0067 267.841C35.597 268.181 35.2574 268.579 34.9531 269.023C34.6487 269.468 34.4028 269.937 34.2155 270.44C34.0399 270.908 33.8525 271.447 33.8525 271.95C33.8525 272.103 33.9813 272.278 34.1101 272.348C34.2857 272.442 34.4379 272.501 34.6252 272.395C34.7891 272.302 34.8009 272.138 34.836 271.962C34.8711 271.716 34.9296 271.482 34.9999 271.248C35.1404 270.756 35.3394 270.276 35.5853 269.831C35.8545 269.316 36.2058 268.836 36.5804 268.38C36.7326 268.192 36.8965 268.028 37.0721 267.864C37.236 267.712 37.4351 267.56 37.5287 267.361C37.5638 267.232 37.5404 267.01 37.3882 267.021Z" fill="#AF6152"/>
<path d="M37.7285 269.691C36.4875 270.335 35.5509 271.752 35.3636 273.133C35.3168 273.519 36.0075 273.917 36.1012 273.437C36.23 272.77 36.4173 272.126 36.7568 271.541C36.909 271.272 37.0612 271.014 37.2485 270.768C37.4476 270.522 37.6583 270.276 37.8807 270.042C37.9861 269.937 37.9042 269.597 37.7285 269.691Z" fill="#AF6152"/>
<path d="M32.062 275.147C31.8279 275.205 31.6405 275.404 31.4649 275.568C31.2893 275.732 31.1254 275.919 30.9732 276.095C30.6688 276.458 30.4229 276.868 30.2356 277.301C30.0366 277.746 29.8961 278.191 29.8141 278.671C29.7322 279.104 29.6502 279.619 29.7322 280.064C29.7556 280.193 29.8961 280.333 30.0249 280.368C30.2005 280.415 30.341 280.45 30.4815 280.321C30.6103 280.216 30.5986 280.064 30.5986 279.912C30.5986 279.689 30.6103 279.467 30.622 279.244C30.6688 278.788 30.7625 278.331 30.9029 277.898C31.0669 277.395 31.2893 276.915 31.5469 276.458C31.6522 276.271 31.7693 276.095 31.8981 275.919C32.0152 275.755 32.1674 275.592 32.2142 275.393C32.2493 275.311 32.1908 275.112 32.062 275.147Z" fill="#AF6152"/>
<path d="M32.8003 277.441C31.8052 278.214 31.2081 279.619 31.2666 280.872C31.2783 281.223 31.9574 281.457 31.9691 281.012C31.9691 280.404 32.0393 279.806 32.2384 279.233C32.332 278.975 32.414 278.718 32.5545 278.472C32.695 278.226 32.8355 277.968 32.9994 277.734C33.0579 277.629 32.9408 277.336 32.8003 277.441Z" fill="#AF6152"/>
<path d="M28.3273 282.651C28.1751 282.698 28.0581 282.838 27.941 282.955C27.8356 283.072 27.7302 283.201 27.6366 283.33C27.4493 283.588 27.3088 283.869 27.1917 284.161C27.0746 284.466 27.0044 284.77 26.9575 285.086C26.9224 285.379 26.8873 285.718 26.9575 286.011C26.981 286.093 27.0746 286.187 27.1683 286.21C27.2854 286.234 27.379 286.257 27.4727 286.163C27.5546 286.081 27.5429 285.988 27.5312 285.882C27.5195 285.73 27.5195 285.59 27.5195 285.437C27.5312 285.133 27.578 284.829 27.66 284.524C27.742 284.185 27.8824 283.857 28.0346 283.541C28.0932 283.412 28.1634 283.295 28.2454 283.166C28.3156 283.049 28.4093 282.944 28.4444 282.803C28.4561 282.745 28.4093 282.616 28.3273 282.651Z" fill="#AF6152"/>
<path d="M28.9019 284.15C28.2696 284.701 27.9301 285.661 28.0121 286.492C28.0355 286.726 28.4921 286.855 28.4804 286.562C28.457 286.152 28.4804 285.754 28.5975 285.368C28.6443 285.192 28.7028 285.017 28.7731 284.853C28.855 284.677 28.9487 284.513 29.0423 284.338C29.0775 284.267 28.9955 284.08 28.9019 284.15Z" fill="#AF6152"/>
<path d="M23.6793 288.95C23.7144 288.926 23.7495 288.786 23.6675 288.809C23.4334 288.868 23.1875 288.95 22.9768 289.067C22.7543 289.196 22.567 289.371 22.4031 289.57C22.2392 289.758 22.0987 289.968 22.0051 290.202C21.9582 290.331 21.9114 290.46 21.8763 290.601C21.8529 290.682 21.8412 290.776 21.8294 290.858C21.8177 290.952 21.8412 291.045 21.8412 291.139C21.8412 291.221 21.8646 291.315 21.9465 291.362C22.0051 291.397 22.087 291.373 22.1104 291.303C22.1456 291.221 22.1924 291.151 22.2275 291.069C22.2509 291.01 22.2626 290.952 22.286 290.905C22.3212 290.8 22.368 290.706 22.4148 290.612C22.5202 290.401 22.6256 290.191 22.7544 290.003C22.8831 289.804 23.047 289.617 23.1992 289.441C23.3397 289.254 23.4919 289.09 23.6793 288.95ZM24.288 290.495C24.1241 290.542 23.9602 290.589 23.8197 290.694C23.6793 290.788 23.5505 290.905 23.4451 291.022C23.3866 291.081 23.3397 291.139 23.2929 291.209C23.2344 291.291 23.1992 291.385 23.1641 291.479C23.0939 291.666 23.0353 291.865 23.0236 292.064C23.0236 292.134 23.0939 292.181 23.1407 292.111C23.2227 291.97 23.2812 291.818 23.3749 291.689C23.4217 291.631 23.4685 291.572 23.5036 291.514C23.5505 291.443 23.5973 291.373 23.6558 291.303C23.7495 291.186 23.8549 291.081 23.9602 290.987C24.0773 290.893 24.1827 290.776 24.3115 290.694C24.3583 290.647 24.3817 290.472 24.288 290.495Z" fill="#AF6152"/>
<path d="M42.0608 263.532C44.4257 265.839 46.7906 268.215 49.46 270.17C51.2747 271.435 53.4991 272.243 54.9274 274.034C57.7021 276.867 56.5782 282.159 52.0122 281.632L52.422 281.082C54.5294 285.086 52.141 289.031 47.5282 288.551L47.9263 288.095C48.3243 292.11 44.414 293.246 41.171 292.462L41.5456 291.958C42.2247 293.433 41.6627 295.26 40.3163 296.114C39.0051 296.911 37.4012 296.63 35.9962 296.559C33.1513 296.407 30.3883 295.634 27.8009 294.487C26.0565 293.843 24.2184 293.199 22.8252 291.923C24.2886 293.141 26.115 293.679 27.8946 294.241C31.3366 295.576 35.1065 296.29 38.7827 295.997C40.5622 295.869 41.6276 293.761 40.9017 292.263L40.5973 291.654C42.2013 291.9 44.0277 292.216 45.4326 291.525C46.6384 290.951 47.3409 289.523 47.1302 288.212L47.0599 287.755C49.8932 287.989 52.4571 287.029 52.3869 283.798C52.3635 282.733 51.8952 281.691 51.38 280.754L52.141 280.895C55.9928 281.351 56.6719 276.844 54.424 274.455C53.0776 272.688 50.9586 271.845 49.1907 270.545C46.5565 268.473 44.3321 265.979 42.0608 263.532Z" fill="#AF6152"/>
</svg>
